<svg width="175" height="175" viewBox="0 0 175 175" fill="none" xmlns="http://www.w3.org/2000/svg">
<path d="M63.2975 80.6347L63.6652 80.6827L63.8178 80.3447L65.863 75.8167L66.028 75.4514L65.7073 75.2109L42.8709 58.0874L18.7533 33.5686L33.5554 19.1696L57.6817 43.2959L75.2165 65.7233L75.4592 66.0336L75.8177 65.8703L80.308 63.8252L80.6443 63.672L80.5965 63.3055L76.9255 35.1734V0.99115H97.9769V35.1734L94.3058 63.3055L94.258 63.672L94.5944 63.8252L99.0847 65.8703L99.4432 66.0336L99.6858 65.7233L117.221 43.2959L141.347 19.1696L156.149 33.5686L132.031 58.0874L109.195 75.2109L108.874 75.4514L109.039 75.8167L111.085 80.3447L111.237 80.6827L111.605 80.6347L139.737 76.9637H173.919V98.0075H139.733L111.598 94.7431L111.25 94.7028L111.093 95.0159L109.048 99.0986L108.863 99.4677L109.19 99.7191L132.016 117.253L156.136 141.373L141.327 156.167L117.207 132.047L99.6734 109.214L99.4316 108.899L99.0702 109.063L94.5799 111.1L94.2429 111.253L94.2908 111.62L97.9618 139.76V173.942H76.9104V139.76L80.5814 111.658L80.6293 111.291L80.2922 111.138L75.8019 109.101L75.4405 108.937L75.1988 109.251L57.6652 132.084L33.5454 156.167L18.7364 141.358L42.8561 117.253L65.6967 99.7192L66.0242 99.4678L65.8392 99.0986L63.7941 95.0159L63.6373 94.7028L63.2894 94.7431L35.1464 98.0075H0.975586V76.9637H35.1578L63.2975 80.6347Z" stroke="#9D84FF"/>
</svg>
